<svg xmlns="http://www.w3.org/2000/svg" xmlns:xlink="http://www.w3.org/1999/xlink" width="841.89" height="595.275" viewBox="0 0 841.89 595.275">
  <defs>
    <clipPath id="clip-Mylapore_Logo_1">
      <rect width="841.89" height="595.276"/>
    </clipPath>
  </defs>
  <g id="Mylapore_Logo_1" data-name="Mylapore Logo – 1" clip-path="url(#clip-Mylapore_Logo_1)">
    <rect width="841.89" height="595.276" fill="#fff"/>
    <text id="Express" transform="translate(192 429.24)" fill="#111" font-size="50" font-family="Cambria" letter-spacing="0.95em"><tspan x="0" y="0">Express</tspan></text>
    <path id="Path_487" data-name="Path 487" d="M4540.119-8432.382c.12-7.826,19.1-54.542,21.335-94.724a6.6,6.6,0,0,0-.652.578l-3.161,3.459a25.416,25.416,0,0,1-3.491,3.452c-15.794,12.218-18.074-5.167-19.52-13.392-.852,5.65-7.465,14.646-11.526,16.279-10.768,4.33-15.113-7.172-16.874-9.563-3.674,3.069-8.166,11.261-16.84,10.383-7.3-.739-8.919-10.161-8.876-17.627.152-26.622,7.433-68.845,14.159-94.55,6.933-26.5,7.031-34.241,22.361-31.34.07,4.046-8.148,25.393-9.982,31.66-6.059,20.689-23.531,92.5-13.014,105.206,10.368-.61,10.568-9.048,11.47-18.854,3.243-35.21,47.7-43.375,45.355-25.423a18.242,18.242,0,0,1-11.948,1.633c.992-8.7-5.785-7.737-10.641-3.317-15.066,13.711-14.494,43.927-6.044,45.075,9.859-2.154,13.453-27.316,15.916-37.345a29.787,29.787,0,0,1,12.079-1.612c.3,4.913-10.666,27.509-1.909,39.661,12.372.622,15.248-20.5,16.468-32.155.754-7.2,1.356-14.4,2.772-21.266.876-4.245,1.161-6.326,4.417-7.665,3.083-1.27,7.48-1.17,10.943-.5-.067,6.271-6.011,15.333-6.48,24.707,4.407-6.287,9.455-17.642,19.629-16.622,22.65,2.273.48,81.174-25.551,58.717-5.072,28.189-6.931,44.79-14.144,73.112-2.293,9-2.45,12.4-10.555,12.4A54.75,54.75,0,0,1,4540.119-8432.382Zm32.7-99.167c0,5.124.491,12.024,4.413,13.2,12.868-1.061,22.016-41.138,15-50.145C4582.252-8568.1,4572.815-8541.455,4572.815-8531.549Zm-134.507,39.066c14.576-10.255,16.5-5.072,17.976-14.925,1.111-7.441,4.068-22,3.533-28.883-2.422,7.032-8.337,16.562-13.024,19.361-12.111,7.234-12.875-6.987-14.231-14.894a7.791,7.791,0,0,0-1.663,1.809c-1.852,2.38-11.57,20.3-22.583,14.361-9.1-4.905-6.185-23.855-4.985-34.845,1.3-11.937,10.7-69.2,5.748-75.889-.561-.33.933-1.75-2.663-.02-4.6,2.216-10.242,17.725-11.837,22.161-5.2,14.471-12.676,46.417-15.878,62.128-2.941,14.443-2.935,27.324-12.3,26.6-5.27-23.312,14.113-94.493,7.448-111.64-12.637,2.159-27.142,73.011-30.06,86.213-3.3,14.97-2.669,25.2-11.218,26.028-2.948-8.076,2.042-52.062,3.118-63.219,1.732-17.947,5.38-44.026-5.222-57.439-16.09-2.012-22.168,18.585-21.627,34.048a55.132,55.132,0,0,0,5.25,22.145c2.367,4.906,9.467,14.209,9.674,16.431-8-.055-16.424-21.79-18.013-32.008-6.542-42.014,31.779-60.87,41.266-35.351,6.313,16.985,1.428,29.333,2.8,45.352.3-5.436,9.018-28.01,11.4-33.623,3.268-7.7,12.67-26.022,23.081-20.165,8.839,7.5-1.665,46.92-1.758,59.1,4.106-12.333,6.843-24.563,11.917-36.694,4.563-10.922,10.97-26.029,25.592-22.886,14.052,17.233-17.727,98.815-4.735,117.483,9.82.924,16.574-16.12,18.227-26.212,2.4-14.652-1.757-29.367,16.12-26.961,1.624,4.611-12.979,30.8-4.593,50.475,5.667-.16,6.946-4.121,9.035-8.252,6.441-12.735,10.735-37.32,12.159-38.857a14.546,14.546,0,0,1,12.515-1.626c-.117,3.1-3.078,11.445-4.059,16.072l-9.585,51.881c4.737-.728,14.026-4.574,17.731-1.326-2.207,2.65-5.477,2.218-9.7,3.046-13.024,2.553-7.972,2.589-15.9,29.971-8.6,29.691-19.961,40.525-28.754,40.521C4412.477-8433.02,4404.981-8469.037,4438.309-8492.482Zm-5.752,15.252c-4.363,7.083-10.6,22.849-3.889,31.281,12.191,15.333,25.1-39.82,25.324-50.453C4444.732-8492.358,4437-8484.452,4432.556-8477.23Zm182.714-42.344c-17.013-18.555,3.013-66.445,33.238-59.234-.059,3.78-2.45,3.737-5.852,3.691-6.779-.091-17.568-.183-21.927,29.964-4.863,33.64,18.992,31,22.072,9.6-5.772-3.287-11.244-7.346-12.076-15.259a22.238,22.238,0,0,1,7.943-19.292c7.252-6.115,15.387-3,17.942,5.183,2.882,9.235.235,17.285-1.268,25.705,5.865-1.931,14.568-12.922,13.254-22.042,0-.011-7.476-23.4,3.631-27.22,3.909,5.518,1.62,14.065,1.406,20.764,9.8.647,15.635-9.42,21.664-12.327l5.166,3.083c-.635,4.9-4.459,13.5-5.885,19.64-2.174,9.35-5.346,27.1.489,35.82,7.546-.021,12.472-8.067,12.781-16.022,2.222-57.24,86.219-47.968,12.531,4.674,3.563,16.409,17.287,12.932,26.4,3.842,6.883-6.865,14.687-31.987,16.159-29.06.063.216.193.516.243.764.846,4.183-3.567,15.727-5.435,19.241-6.574,12.394-19.167,24.237-33.285,22.035-9.272-1.445-11.957-8.278-15.231-12.193-4.691,4.55-6.856,12.441-16.174,13.459-21.407,2.333-6.3-47.625-6.315-50.242-2.455,3.161-6.983,4.637-10.553,5.5l-3.846,1.2c-2.756,3.006,1.848,10.178-17.194,22.576-3.128,2.037-3.708,4.791-5.593,7.5-4.109,5.9-13.52,13.982-22.794,13.982A15.165,15.165,0,0,1,4615.271-8519.574Zm108.82-40.141c-3.167,6.622-5.748,14.987-4.835,23.17,5.185-2.4,10.483-8.55,13.883-14.1,8.4-13.717,7.261-21.592,2.876-21.589C4732.917-8572.236,4728.2-8568.3,4724.09-8559.715Zm-84.787-4.965c-6.472,4.88-2.711,21.47,5.1,25.322.739-3.439,4.628-26.749-1.831-26.744A5.759,5.759,0,0,0,4639.3-8564.68Z" transform="translate(-4113.213 8816.156)" fill="#e36528" stroke="rgba(0,0,0,0)" stroke-width="1"/>
  </g>
</svg>
